# Blender v3.5.1 OBJ File: 'microwave.blend'
# www.blender.org
mtllib microwave without screen or back.mtl
o Plane
v 1.378025 0.519934 1.136404
v 1.378025 -0.510399 1.136404
v 1.378026 0.519934 -0.327201
v 1.378026 -0.510399 -0.327201
vt 0.000000 0.000000
vt 0.000000 1.000000
vt 1.000000 1.000000
vt 1.000000 0.000000
vn -1.0000 0.0000 -0.0000
usemtl Material.001
s off
f 1/1/1 3/2/1 4/3/1 2/4/1
o Cube
v 1.380000 0.770000 -1.400000
v 1.380000 -0.770000 -1.400000
v 1.380000 0.770000 1.400000
v 1.380000 -0.770000 1.400000
v 1.380000 0.600600 -0.507200
v 1.380000 -0.600600 1.307200
v 1.380000 0.600600 1.307200
v 1.380000 -0.600600 -0.507200
v 0.038030 0.770000 -1.400000
v 0.038030 0.770000 1.400000
v 0.038030 0.284405 1.400000
v 0.038030 0.754330 1.400000
v 0.038030 -0.770000 1.400000
v 0.038030 -0.770000 -1.400000
v 0.038030 0.600600 -0.507200
v 0.038030 0.600600 1.307200
v 0.038030 0.394446 1.307200
v 0.038030 -0.600600 1.307200
v 0.038030 -0.600600 -0.507200
vt 0.625000 0.750000
vt 0.625000 0.500000
vt 0.796170 0.500000
vt 0.796170 0.750000
vt 0.546170 0.921170
vt 0.375000 0.921170
vt 0.375000 0.750000
vt 0.625000 0.921170
vt 0.622456 0.921170
vt 0.375000 0.500000
vt 0.203830 0.750000
vt 0.203830 0.500000
vt 0.597500 0.741714
vt 0.402500 0.741714
vt 0.402500 0.579714
vt 0.597500 0.579714
vt 0.625000 0.328830
vt 0.375000 0.328830
vt 0.833627 0.500000
vt 0.633929 0.500000
vt 0.633929 0.750000
vt 0.833627 0.750000
vt 0.625000 0.758929
vt 0.375000 0.758929
vt 0.375000 0.958627
vt 0.582094 0.958627
vt 0.625000 0.958627
vt 0.166373 0.750000
vt 0.366071 0.750000
vt 0.366071 0.500000
vt 0.166373 0.500000
vt 0.375000 0.491071
vt 0.625000 0.491071
vt 0.625000 0.291373
vt 0.375000 0.291373
vt 0.549306 0.250000
vt 0.535551 0.250000
vt 0.594291 0.250000
vt 0.575075 0.250000
vt 0.596250 0.250000
vt 0.596250 0.250000
vt 0.403750 0.250000
vt 0.403750 0.250000
vt 0.424925 0.250000
vt 0.424925 0.250000
vt 0.575075 0.250000
vn 0.0000 1.0000 0.0000
vn 0.0000 0.0000 1.0000
vn 0.0000 -1.0000 0.0000
vn 1.0000 0.0000 0.0000
vn 0.0000 0.0000 -1.0000
vn -1.0000 0.0000 0.0000
usemtl Material
s off
f 7/5/2 5/6/2 13/7/2 14/8/2
f 15/9/3 17/10/3 8/11/3 7/5/3 14/12/3 16/13/3
f 6/14/4 8/11/4 17/15/4 18/16/4
f 11/17/5 7/5/5 8/11/5 10/18/5
f 12/19/5 10/18/5 8/11/5 6/14/5 5/6/5 7/5/5 11/17/5 9/20/5
f 13/21/6 5/6/6 6/14/6 18/22/6
f 19/23/4 9/24/4 11/25/4 20/26/4
f 11/27/6 10/28/6 22/29/6 21/30/6 20/31/6
f 22/32/2 10/33/2 12/34/2 23/35/2
f 12/36/3 9/37/3 19/38/3 23/39/3
f 21/40/7 15/41/7 16/42/7 20/43/7
f 16/42/7 14/44/7 13/45/7 18/46/7 17/47/7 15/41/7 21/40/7 22/48/7 23/49/7 19/50/7 20/43/7
o Cylinder
v 1.378025 -0.609840 1.262865
v 1.378025 0.609840 1.262865
v 1.380966 -0.609840 1.263010
v 1.380966 0.609840 1.263010
v 1.383878 -0.609840 1.263442
v 1.383878 0.609840 1.263442
v 1.386734 -0.609840 1.264157
v 1.386734 0.609840 1.264157
v 1.389506 -0.609840 1.265149
v 1.389506 0.609840 1.265149
v 1.392167 -0.609840 1.266408
v 1.392167 0.609840 1.266408
v 1.394693 -0.609840 1.267921
v 1.394693 0.609840 1.267921
v 1.397057 -0.609840 1.269675
v 1.397057 0.609840 1.269675
v 1.399239 -0.609840 1.271652
v 1.399239 0.609840 1.271652
v 1.401216 -0.609840 1.273834
v 1.401216 0.609840 1.273834
v 1.402969 -0.609840 1.276198
v 1.402969 0.609840 1.276198
v 1.404483 -0.609840 1.278723
v 1.404483 0.609840 1.278723
v 1.405742 -0.609840 1.281385
v 1.405742 0.609840 1.281385
v 1.406734 -0.609840 1.284157
v 1.406734 0.609840 1.284157
v 1.407449 -0.609840 1.287013
v 1.407449 0.609840 1.287013
v 1.407881 -0.609840 1.289925
v 1.407881 0.609840 1.289925
v 1.408025 -0.609840 1.292865
v 1.408025 0.609840 1.292865
v 1.407881 -0.609840 1.295806
v 1.407881 0.609840 1.295806
v 1.407449 -0.609840 1.298718
v 1.407449 0.609840 1.298718
v 1.406734 -0.609840 1.301574
v 1.406734 0.609840 1.301574
v 1.405742 -0.609840 1.304346
v 1.405742 0.609840 1.304346
v 1.404483 -0.609840 1.307007
v 1.404483 0.609840 1.307007
v 1.402969 -0.609840 1.309532
v 1.402969 0.609840 1.309532
v 1.401216 -0.609840 1.311897
v 1.401216 0.609840 1.311897
v 1.399239 -0.609840 1.314078
v 1.399239 0.609840 1.314078
v 1.397057 -0.609840 1.316056
v 1.397057 0.609840 1.316056
v 1.394693 -0.609840 1.317809
v 1.394693 0.609840 1.317809
v 1.392167 -0.609840 1.319323
v 1.392167 0.609840 1.319323
v 1.389506 -0.609840 1.320582
v 1.389506 0.609840 1.320582
v 1.386734 -0.609840 1.321573
v 1.386734 0.609840 1.321573
v 1.383878 -0.609840 1.322289
v 1.383878 0.609840 1.322289
v 1.380966 -0.609840 1.322721
v 1.380966 0.609840 1.322721
v 1.378025 -0.609840 1.322865
v 1.378025 0.609840 1.322865
v 1.375085 -0.609840 1.322721
v 1.375085 0.609840 1.322721
v 1.372173 -0.609840 1.322289
v 1.372173 0.609840 1.322289
v 1.369317 -0.609840 1.321573
v 1.369317 0.609840 1.321573
v 1.366545 -0.609840 1.320582
v 1.366545 0.609840 1.320582
v 1.363883 -0.609840 1.319323
v 1.363883 0.609840 1.319323
v 1.361358 -0.609840 1.317809
v 1.361358 0.609840 1.317809
v 1.358994 -0.609840 1.316056
v 1.358994 0.609840 1.316056
v 1.356812 -0.609840 1.314078
v 1.356812 0.609840 1.314078
v 1.354835 -0.609840 1.311897
v 1.354835 0.609840 1.311897
v 1.353081 -0.609840 1.309532
v 1.353081 0.609840 1.309532
v 1.351568 -0.609840 1.307007
v 1.351568 0.609840 1.307007
v 1.350309 -0.609840 1.304346
v 1.350309 0.609840 1.304346
v 1.349317 -0.609840 1.301574
v 1.349317 0.609840 1.301574
v 1.348602 -0.609840 1.298718
v 1.348602 0.609840 1.298718
v 1.348170 -0.609840 1.295806
v 1.348170 0.609840 1.295806
v 1.348025 -0.609840 1.292865
v 1.348025 0.609840 1.292865
v 1.348170 -0.609840 1.289925
v 1.348170 0.609840 1.289925
v 1.348602 -0.609840 1.287013
v 1.348602 0.609840 1.287013
v 1.349317 -0.609840 1.284157
v 1.349317 0.609840 1.284157
v 1.350309 -0.609840 1.281385
v 1.350309 0.609840 1.281385
v 1.351568 -0.609840 1.278723
v 1.351568 0.609840 1.278723
v 1.353081 -0.609840 1.276198
v 1.353081 0.609840 1.276198
v 1.354835 -0.609840 1.273834
v 1.354835 0.609840 1.273834
v 1.356812 -0.609840 1.271652
v 1.356812 0.609840 1.271652
v 1.358994 -0.609840 1.269675
v 1.358994 0.609840 1.269675
v 1.361358 -0.609840 1.267921
v 1.361358 0.609840 1.267921
v 1.363883 -0.609840 1.266408
v 1.363883 0.609840 1.266408
v 1.366545 -0.609840 1.265149
v 1.366545 0.609840 1.265149
v 1.369317 -0.609840 1.264157
v 1.369317 0.609840 1.264157
v 1.372173 -0.609840 1.263442
v 1.372173 0.609840 1.263442
v 1.375085 -0.609840 1.263010
v 1.375085 0.609840 1.263010
vt 1.000000 0.500000
vt 1.000000 1.000000
vt 0.984375 1.000000
vt 0.984375 0.500000
vt 0.968750 1.000000
vt 0.968750 0.500000
vt 0.953125 1.000000
vt 0.953125 0.500000
vt 0.937500 1.000000
vt 0.937500 0.500000
vt 0.921875 1.000000
vt 0.921875 0.500000
vt 0.906250 1.000000
vt 0.906250 0.500000
vt 0.890625 1.000000
vt 0.890625 0.500000
vt 0.875000 1.000000
vt 0.875000 0.500000
vt 0.859375 1.000000
vt 0.859375 0.500000
vt 0.843750 1.000000
vt 0.843750 0.500000
vt 0.828125 1.000000
vt 0.828125 0.500000
vt 0.812500 1.000000
vt 0.812500 0.500000
vt 0.796875 1.000000
vt 0.796875 0.500000
vt 0.781250 1.000000
vt 0.781250 0.500000
vt 0.765625 1.000000
vt 0.765625 0.500000
vt 0.750000 1.000000
vt 0.750000 0.500000
vt 0.734375 1.000000
vt 0.734375 0.500000
vt 0.718750 1.000000
vt 0.718750 0.500000
vt 0.703125 1.000000
vt 0.703125 0.500000
vt 0.687500 1.000000
vt 0.687500 0.500000
vt 0.671875 1.000000
vt 0.671875 0.500000
vt 0.656250 1.000000
vt 0.656250 0.500000
vt 0.640625 1.000000
vt 0.640625 0.500000
vt 0.625000 1.000000
vt 0.625000 0.500000
vt 0.609375 1.000000
vt 0.609375 0.500000
vt 0.593750 1.000000
vt 0.593750 0.500000
vt 0.578125 1.000000
vt 0.578125 0.500000
vt 0.562500 1.000000
vt 0.562500 0.500000
vt 0.546875 1.000000
vt 0.546875 0.500000
vt 0.531250 1.000000
vt 0.531250 0.500000
vt 0.515625 1.000000
vt 0.515625 0.500000
vt 0.500000 1.000000
vt 0.500000 0.500000
vt 0.484375 1.000000
vt 0.484375 0.500000
vt 0.468750 1.000000
vt 0.468750 0.500000
vt 0.453125 1.000000
vt 0.453125 0.500000
vt 0.437500 1.000000
vt 0.437500 0.500000
vt 0.421875 1.000000
vt 0.421875 0.500000
vt 0.406250 1.000000
vt 0.406250 0.500000
vt 0.390625 1.000000
vt 0.390625 0.500000
vt 0.375000 1.000000
vt 0.375000 0.500000
vt 0.359375 1.000000
vt 0.359375 0.500000
vt 0.343750 1.000000
vt 0.343750 0.500000
vt 0.328125 1.000000
vt 0.328125 0.500000
vt 0.312500 1.000000
vt 0.312500 0.500000
vt 0.296875 1.000000
vt 0.296875 0.500000
vt 0.281250 1.000000
vt 0.281250 0.500000
vt 0.265625 1.000000
vt 0.265625 0.500000
vt 0.250000 1.000000
vt 0.250000 0.500000
vt 0.234375 1.000000
vt 0.234375 0.500000
vt 0.218750 1.000000
vt 0.218750 0.500000
vt 0.203125 1.000000
vt 0.203125 0.500000
vt 0.187500 1.000000
vt 0.187500 0.500000
vt 0.171875 1.000000
vt 0.171875 0.500000
vt 0.156250 1.000000
vt 0.156250 0.500000
vt 0.140625 1.000000
vt 0.140625 0.500000
vt 0.125000 1.000000
vt 0.125000 0.500000
vt 0.109375 1.000000
vt 0.109375 0.500000
vt 0.093750 1.000000
vt 0.093750 0.500000
vt 0.078125 1.000000
vt 0.078125 0.500000
vt 0.062500 1.000000
vt 0.062500 0.500000
vt 0.046875 1.000000
vt 0.046875 0.500000
vt 0.031250 1.000000
vt 0.031250 0.500000
vt 0.273524 0.488844
vt 0.250000 0.490000
vt 0.226476 0.488844
vt 0.203178 0.485388
vt 0.180332 0.479666
vt 0.158156 0.471731
vt 0.136865 0.461661
vt 0.116663 0.449553
vt 0.097746 0.435522
vt 0.080294 0.419706
vt 0.064478 0.402254
vt 0.050447 0.383337
vt 0.038339 0.363135
vt 0.028269 0.341844
vt 0.020334 0.319668
vt 0.014612 0.296822
vt 0.011156 0.273524
vt 0.010000 0.250000
vt 0.011156 0.226476
vt 0.014612 0.203178
vt 0.020334 0.180332
vt 0.028269 0.158156
vt 0.038339 0.136865
vt 0.050447 0.116663
vt 0.064478 0.097746
vt 0.080294 0.080294
vt 0.097746 0.064478
vt 0.116663 0.050447
vt 0.136865 0.038339
vt 0.158156 0.028269
vt 0.180332 0.020334
vt 0.203178 0.014612
vt 0.226476 0.011156
vt 0.250000 0.010000
vt 0.273524 0.011156
vt 0.296822 0.014612
vt 0.319668 0.020334
vt 0.341844 0.028269
vt 0.363135 0.038339
vt 0.383337 0.050447
vt 0.402254 0.064478
vt 0.419706 0.080294
vt 0.435522 0.097746
vt 0.449553 0.116663
vt 0.461661 0.136865
vt 0.471731 0.158156
vt 0.479666 0.180332
vt 0.485388 0.203178
vt 0.488844 0.226476
vt 0.490000 0.250000
vt 0.488844 0.273524
vt 0.485388 0.296822
vt 0.479666 0.319668
vt 0.471731 0.341844
vt 0.461661 0.363135
vt 0.449553 0.383337
vt 0.435522 0.402254
vt 0.419706 0.419706
vt 0.402254 0.435522
vt 0.383337 0.449553
vt 0.363135 0.461661
vt 0.341844 0.471731
vt 0.319668 0.479666
vt 0.296822 0.485388
vt 0.015625 1.000000
vt 0.015625 0.500000
vt 0.000000 1.000000
vt 0.000000 0.500000
vt 0.750000 0.490000
vt 0.773524 0.488844
vt 0.796822 0.485388
vt 0.819668 0.479666
vt 0.841844 0.471731
vt 0.863135 0.461661
vt 0.883337 0.449553
vt 0.902254 0.435522
vt 0.919706 0.419706
vt 0.935522 0.402254
vt 0.949553 0.383337
vt 0.961661 0.363135
vt 0.971731 0.341844
vt 0.979666 0.319668
vt 0.985388 0.296822
vt 0.988844 0.273524
vt 0.990000 0.250000
vt 0.988844 0.226476
vt 0.985388 0.203178
vt 0.979666 0.180332
vt 0.971731 0.158156
vt 0.961661 0.136865
vt 0.949553 0.116663
vt 0.935522 0.097746
vt 0.919706 0.080294
vt 0.902254 0.064478
vt 0.883337 0.050447
vt 0.863135 0.038339
vt 0.841844 0.028269
vt 0.819668 0.020334
vt 0.796822 0.014612
vt 0.773524 0.011156
vt 0.750000 0.010000
vt 0.726476 0.011156
vt 0.703178 0.014612
vt 0.680332 0.020334
vt 0.658156 0.028269
vt 0.636865 0.038339
vt 0.616663 0.050447
vt 0.597746 0.064478
vt 0.580294 0.080294
vt 0.564478 0.097746
vt 0.550447 0.116663
vt 0.538339 0.136865
vt 0.528269 0.158156
vt 0.520334 0.180332
vt 0.514612 0.203178
vt 0.511156 0.226476
vt 0.510000 0.250000
vt 0.511156 0.273524
vt 0.514612 0.296822
vt 0.520334 0.319668
vt 0.528269 0.341844
vt 0.538339 0.363135
vt 0.550447 0.383337
vt 0.564478 0.402254
vt 0.580294 0.419706
vt 0.597746 0.435522
vt 0.616663 0.449553
vt 0.636865 0.461661
vt 0.658156 0.471731
vt 0.680332 0.479666
vt 0.703178 0.485388
vt 0.726476 0.488844
vn 0.0491 0.0000 -0.9988
vn 0.1467 0.0000 -0.9892
vn 0.2430 0.0000 -0.9700
vn 0.3369 0.0000 -0.9415
vn 0.4275 0.0000 -0.9040
vn 0.5141 0.0000 -0.8577
vn 0.5957 0.0000 -0.8032
vn 0.6715 0.0000 -0.7410
vn 0.7409 0.0000 -0.6716
vn 0.8032 0.0000 -0.5957
vn 0.8577 0.0000 -0.5141
vn 0.9040 0.0000 -0.4275
vn 0.9415 0.0000 -0.3369
vn 0.9700 0.0000 -0.2430
vn 0.9892 0.0000 -0.1467
vn 0.9988 0.0000 -0.0490
vn 0.9988 0.0000 0.0490
vn 0.9892 0.0000 0.1467
vn 0.9700 0.0000 0.2430
vn 0.9415 0.0000 0.3369
vn 0.9040 0.0000 0.4275
vn 0.8577 0.0000 0.5141
vn 0.8032 0.0000 0.5957
vn 0.7409 0.0000 0.6716
vn 0.6715 0.0000 0.7410
vn 0.5957 0.0000 0.8032
vn 0.5141 0.0000 0.8577
vn 0.4276 0.0000 0.9040
vn 0.3369 0.0000 0.9415
vn 0.2430 0.0000 0.9700
vn 0.1467 0.0000 0.9892
vn 0.0491 0.0000 0.9988
vn -0.0491 0.0000 0.9988
vn -0.1467 0.0000 0.9892
vn -0.2430 0.0000 0.9700
vn -0.3369 0.0000 0.9415
vn -0.4276 0.0000 0.9040
vn -0.5141 0.0000 0.8577
vn -0.5957 0.0000 0.8032
vn -0.6715 0.0000 0.7410
vn -0.7409 0.0000 0.6716
vn -0.8032 0.0000 0.5957
vn -0.8577 0.0000 0.5141
vn -0.9040 0.0000 0.4275
vn -0.9415 0.0000 0.3369
vn -0.9700 0.0000 0.2430
vn -0.9892 0.0000 0.1467
vn -0.9988 0.0000 0.0490
vn -0.9988 0.0000 -0.0490
vn -0.9892 0.0000 -0.1467
vn -0.9700 0.0000 -0.2430
vn -0.9415 0.0000 -0.3369
vn -0.9040 0.0000 -0.4275
vn -0.8577 0.0000 -0.5141
vn -0.8032 0.0000 -0.5957
vn -0.7409 0.0000 -0.6716
vn -0.6715 0.0000 -0.7410
vn -0.5957 0.0000 -0.8032
vn -0.5141 0.0000 -0.8577
vn -0.4275 0.0000 -0.9040
vn -0.3369 0.0000 -0.9415
vn -0.2430 0.0000 -0.9700
vn 0.0000 1.0000 -0.0000
vn -0.1467 0.0000 -0.9892
vn -0.0491 0.0000 -0.9988
vn 0.0000 -1.0000 -0.0000
usemtl None
s off
f 24/51/8 25/52/8 27/53/8 26/54/8
f 26/54/9 27/53/9 29/55/9 28/56/9
f 28/56/10 29/55/10 31/57/10 30/58/10
f 30/58/11 31/57/11 33/59/11 32/60/11
f 32/60/12 33/59/12 35/61/12 34/62/12
f 34/62/13 35/61/13 37/63/13 36/64/13
f 36/64/14 37/63/14 39/65/14 38/66/14
f 38/66/15 39/65/15 41/67/15 40/68/15
f 40/68/16 41/67/16 43/69/16 42/70/16
f 42/70/17 43/69/17 45/71/17 44/72/17
f 44/72/18 45/71/18 47/73/18 46/74/18
f 46/74/19 47/73/19 49/75/19 48/76/19
f 48/76/20 49/75/20 51/77/20 50/78/20
f 50/78/21 51/77/21 53/79/21 52/80/21
f 52/80/22 53/79/22 55/81/22 54/82/22
f 54/82/23 55/81/23 57/83/23 56/84/23
f 56/84/24 57/83/24 59/85/24 58/86/24
f 58/86/25 59/85/25 61/87/25 60/88/25
f 60/88/26 61/87/26 63/89/26 62/90/26
f 62/90/27 63/89/27 65/91/27 64/92/27
f 64/92/28 65/91/28 67/93/28 66/94/28
f 66/94/29 67/93/29 69/95/29 68/96/29
f 68/96/30 69/95/30 71/97/30 70/98/30
f 70/98/31 71/97/31 73/99/31 72/100/31
f 72/100/32 73/99/32 75/101/32 74/102/32
f 74/102/33 75/101/33 77/103/33 76/104/33
f 76/104/34 77/103/34 79/105/34 78/106/34
f 78/106/35 79/105/35 81/107/35 80/108/35
f 80/108/36 81/107/36 83/109/36 82/110/36
f 82/110/37 83/109/37 85/111/37 84/112/37
f 84/112/38 85/111/38 87/113/38 86/114/38
f 86/114/39 87/113/39 89/115/39 88/116/39
f 88/116/40 89/115/40 91/117/40 90/118/40
f 90/118/41 91/117/41 93/119/41 92/120/41
f 92/120/42 93/119/42 95/121/42 94/122/42
f 94/122/43 95/121/43 97/123/43 96/124/43
f 96/124/44 97/123/44 99/125/44 98/126/44
f 98/126/45 99/125/45 101/127/45 100/128/45
f 100/128/46 101/127/46 103/129/46 102/130/46
f 102/130/47 103/129/47 105/131/47 104/132/47
f 104/132/48 105/131/48 107/133/48 106/134/48
f 106/134/49 107/133/49 109/135/49 108/136/49
f 108/136/50 109/135/50 111/137/50 110/138/50
f 110/138/51 111/137/51 113/139/51 112/140/51
f 112/140/52 113/139/52 115/141/52 114/142/52
f 114/142/53 115/141/53 117/143/53 116/144/53
f 116/144/54 117/143/54 119/145/54 118/146/54
f 118/146/55 119/145/55 121/147/55 120/148/55
f 120/148/56 121/147/56 123/149/56 122/150/56
f 122/150/57 123/149/57 125/151/57 124/152/57
f 124/152/58 125/151/58 127/153/58 126/154/58
f 126/154/59 127/153/59 129/155/59 128/156/59
f 128/156/60 129/155/60 131/157/60 130/158/60
f 130/158/61 131/157/61 133/159/61 132/160/61
f 132/160/62 133/159/62 135/161/62 134/162/62
f 134/162/63 135/161/63 137/163/63 136/164/63
f 136/164/64 137/163/64 139/165/64 138/166/64
f 138/166/65 139/165/65 141/167/65 140/168/65
f 140/168/66 141/167/66 143/169/66 142/170/66
f 142/170/67 143/169/67 145/171/67 144/172/67
f 144/172/68 145/171/68 147/173/68 146/174/68
f 146/174/69 147/173/69 149/175/69 148/176/69
f 27/177/70 25/178/70 151/179/70 149/180/70 147/181/70 145/182/70 143/183/70 141/184/70 139/185/70 137/186/70 135/187/70 133/188/70 131/189/70 129/190/70 127/191/70 125/192/70 123/193/70 121/194/70 119/195/70 117/196/70 115/197/70 113/198/70 111/199/70 109/200/70 107/201/70 105/202/70 103/203/70 101/204/70 99/205/70 97/206/70 95/207/70 93/208/70 91/209/70 89/210/70 87/211/70 85/212/70 83/213/70 81/214/70 79/215/70 77/216/70 75/217/70 73/218/70 71/219/70 69/220/70 67/221/70 65/222/70 63/223/70 61/224/70 59/225/70 57/226/70 55/227/70 53/228/70 51/229/70 49/230/70 47/231/70 45/232/70 43/233/70 41/234/70 39/235/70 37/236/70 35/237/70 33/238/70 31/239/70 29/240/70
f 148/176/71 149/175/71 151/241/71 150/242/71
f 150/242/72 151/241/72 25/243/72 24/244/72
f 24/245/73 26/246/73 28/247/73 30/248/73 32/249/73 34/250/73 36/251/73 38/252/73 40/253/73 42/254/73 44/255/73 46/256/73 48/257/73 50/258/73 52/259/73 54/260/73 56/261/73 58/262/73 60/263/73 62/264/73 64/265/73 66/266/73 68/267/73 70/268/73 72/269/73 74/270/73 76/271/73 78/272/73 80/273/73 82/274/73 84/275/73 86/276/73 88/277/73 90/278/73 92/279/73 94/280/73 96/281/73 98/282/73 100/283/73 102/284/73 104/285/73 106/286/73 108/287/73 110/288/73 112/289/73 114/290/73 116/291/73 118/292/73 120/293/73 122/294/73 124/295/73 126/296/73 128/297/73 130/298/73 132/299/73 134/300/73 136/301/73 138/302/73 140/303/73 142/304/73 144/305/73 146/306/73 148/307/73 150/308/73
o door_Cube.005
v 1.445000 -0.630000 -0.500000
v 1.445000 0.630000 -0.500000
v 1.445000 -0.630000 1.300000
v 1.445000 0.630000 1.300000
v 1.355000 -0.630000 -0.500000
v 1.355000 0.630000 -0.500000
v 1.355000 -0.630000 1.300000
v 1.355000 0.630000 1.300000
v 1.445000 0.504000 1.120000
v 1.445000 -0.504000 1.120000
v 1.355000 -0.504000 1.120000
v 1.355000 0.504000 1.120000
v 1.400000 0.504000 1.120000
v 1.400000 -0.504000 1.120000
v 1.445000 0.504000 1.118573
v 1.445000 0.504000 1.118573
v 1.445000 0.504000 -0.320001
v 1.445000 -0.504000 1.118573
v 1.445000 -0.504000 1.118573
v 1.445000 0.504000 -0.321427
v 1.445000 -0.504000 -0.321427
v 1.355000 -0.504000 -0.321427
v 1.355000 -0.504000 -0.320001
v 1.355000 0.504000 -0.321427
v 1.355000 0.504000 1.118573
v 1.355000 0.504000 1.118573
v 1.355000 -0.504000 1.118573
v 1.355000 -0.504000 1.118573
v 1.400000 0.504000 1.118573
v 1.400000 -0.504000 1.118573
vt 0.625000 0.000000
vt 0.625000 0.250000
vt 0.375000 0.250000
vt 0.400000 0.225000
vt 0.600000 0.225000
vt 0.600000 0.224802
vt 0.600000 0.224802
vt 0.600000 0.025000
vt 0.400000 0.224802
vt 0.375000 0.000000
vt 0.600000 0.024802
vt 0.400000 0.024802
vt 0.400000 0.224802
vt 0.625000 0.500000
vt 0.375000 0.500000
vt 0.600000 0.525000
vt 0.400000 0.525000
vt 0.625000 0.750000
vt 0.375000 0.750000
vt 0.400000 0.725000
vt 0.400000 0.725198
vt 0.600000 0.725198
vt 0.600000 0.525198
vt 0.600000 0.525198
vt 0.400000 0.525198
vt 0.400000 0.525198
vt 0.625000 1.000000
vt 0.375000 1.000000
vt 0.125000 0.500000
vt 0.125000 0.750000
vt 0.875000 0.500000
vt 0.875000 0.750000
vt 0.625000 0.249752
vt 0.625000 0.250000
vt 0.375000 0.250000
vt 0.375000 0.249752
vt 0.625000 0.375000
vt 0.625000 0.380625
vt 0.375000 0.380625
vt 0.375000 0.375000
vt 0.250000 0.500248
vt 0.250000 0.500000
vt 0.255625 0.500000
vt 0.255625 0.500248
vt 0.744375 0.500248
vt 0.744375 0.500000
vt 0.750000 0.500000
vt 0.750000 0.500248
vt 0.375000 0.282808
vt 0.375000 0.282808
vt 0.375000 0.488721
vt 0.375000 0.488721
vt 0.625000 0.488721
vt 0.625000 0.488721
vt 0.625000 0.282808
vt 0.625000 0.282808
vt 0.625000 0.385765
vt 0.375000 0.385765
vt 0.375000 0.761279
vt 0.375000 0.967192
vt 0.625000 0.967192
vt 0.625000 0.761279
vt 0.157808 0.500000
vt 0.157808 0.750000
vt 0.363721 0.750000
vt 0.363721 0.749752
vt 0.363721 0.500000
vt 0.842192 0.749752
vt 0.842192 0.500000
vt 0.636279 0.500000
vt 0.636279 0.750000
vt 0.842192 0.750000
vn 1.0000 -0.0000 0.0000
vn 0.0000 0.0000 1.0000
vn -1.0000 -0.0000 0.0000
vn 0.0000 0.0000 -1.0000
vn 0.0000 -1.0000 0.0000
vn 0.0000 1.0000 0.0000
usemtl None
s off
f 153/309/74 155/310/74 154/311/74 161/312/74 160/313/74 167/314/74 166/315/74 168/316/74
f 170/317/74 161/312/74 154/311/74 152/318/74 153/309/74 168/316/74 171/319/74 172/320/74 169/321/74
f 154/311/75 155/310/75 159/322/75 158/323/75
f 163/324/76 162/325/76 158/323/76 159/322/76 157/326/76 156/327/76 174/328/76 173/329/76 175/330/76 176/331/76 177/332/76
f 178/333/76 162/325/76 163/324/76 177/332/76
f 174/328/76 156/327/76 158/323/76 162/325/76 178/333/76 179/334/76
f 156/327/77 157/326/77 153/335/77 152/336/77
f 154/337/78 158/323/78 156/327/78 152/338/78
f 159/322/79 155/339/79 153/340/79 157/326/79
f 180/341/74 164/342/74 165/343/74 181/344/74
f 164/345/77 160/346/77 161/347/77 165/348/77
f 181/349/79 165/350/79 161/351/79 170/352/79
f 167/353/78 160/354/78 164/355/78 180/356/78
f 170/357/77 169/358/77 179/359/77 178/360/77 177/361/77 176/362/77 166/363/77 167/364/77 180/365/77 181/366/77
f 173/367/75 172/368/75 171/369/75 175/370/75
f 169/371/79 172/372/79 173/373/79 174/374/79 179/375/79
f 168/376/78 166/377/78 176/378/78 175/379/78 171/380/78
